<?xml version="1.0" encoding="UTF-8" standalone="no"?>
<!-- Created with Inkscape (http://www.inkscape.org/) -->

<svg
   width="300mm"
   height="300mm"
   viewBox="0 0 300 300"
   version="1.1"
   id="svg5"
   inkscape:version="1.1.1 (3bf5ae0d25, 2021-09-20)"
   sodipodi:docname="logo.svg"
   xmlns:inkscape="http://www.inkscape.org/namespaces/inkscape"
   xmlns:sodipodi="http://sodipodi.sourceforge.net/DTD/sodipodi-0.dtd"
   xmlns="http://www.w3.org/2000/svg"
   xmlns:svg="http://www.w3.org/2000/svg">
  <sodipodi:namedview
     id="namedview7"
     pagecolor="#ffffff"
     bordercolor="#111111"
     borderopacity="1"
     inkscape:pageshadow="0"
     inkscape:pageopacity="0"
     inkscape:pagecheckerboard="1"
     inkscape:document-units="mm"
     showgrid="false"
     inkscape:zoom="0.45254834"
     inkscape:cx="577.83882"
     inkscape:cy="580.04853"
     inkscape:window-width="1920"
     inkscape:window-height="1017"
     inkscape:window-x="-8"
     inkscape:window-y="-8"
     inkscape:window-maximized="1"
     inkscape:current-layer="layer1"
     width="300mm" />
  <defs
     id="defs2" />
  <g
     inkscape:label="Layer 1"
     inkscape:groupmode="layer"
     id="layer1">
    <path
       style="fill:#333333;fill-opacity:1;stroke-width:0.403939"
       d="m 0.16684955,297.23213 v -3.19104 H 1.8865212 c 2.312811,0 3.9709273,-1.59505 4.4355185,-4.2668 0.1820862,-1.04639 0.3383537,-5.87537 0.3474134,-10.73107 l 0.018121,-8.82857 H 3.4278697 0.16812032 v -3.40376 -3.40374 H 7.8563669 15.544614 l -0.114142,14.99786 c -0.109614,14.42922 -0.145397,15.06242 -0.941911,16.69974 -0.45526,0.93604 -1.318131,2.20657 -1.917521,2.82338 -2.084568,2.14529 -3.2022245,2.49504 -7.973651,2.49504 H 0.16812032 Z m 18.17237645,1.81488 c -1.820228,-1.77306 -2.448968,-3.50256 -2.448968,-6.7362 0,-6.19329 3.442424,-8.94209 12.385163,-9.8898 4.50106,-0.47691 4.522938,-0.48444 4.410244,-1.54257 -0.06929,-0.64915 -0.620678,-1.44134 -1.416332,-2.03421 -1.753145,-1.30646 -6.33646,-1.36425 -9.527044,-0.12004 -1.200228,0.46786 -2.583495,0.85092 -3.073905,0.85092 -0.869936,0 -0.88896,-0.0855 -0.780296,-3.49823 l 0.111426,-3.49824 2.876236,-0.56111 c 1.781274,-0.34724 4.92022,-0.50655 8.24524,-0.41759 4.563795,0.12164 5.65441,0.28644 7.272437,1.0973 2.430852,1.21824 3.215317,2.00764 4.086476,4.11247 0.624799,1.50955 0.705379,2.94014 0.712854,12.65777 l 0.009,10.95591 H 36.98333 32.764822 v -1.08163 -1.08159 l -1.663553,1.08159 c -1.544107,1.00395 -2.011235,1.08163 -6.506135,1.08163 h -4.84254 z m 13.178596,-5.00128 c 1.205075,-0.81513 1.246339,-0.93677 1.246339,-3.67367 v -2.83058 l -2.54291,0.28896 c -4.282556,0.48695 -5.894019,1.65372 -5.894019,4.26794 0,0.60043 0.345149,1.47455 0.766982,1.94262 1.065973,1.18265 4.678254,1.18525 6.423608,0.006 z m 11.21732,-7.66312 v -14.04056 h 4.4102 4.410244 v 1.06365 c 0,0.58503 0.07475,1.06367 0.166234,1.06367 0.09149,0 1.068465,-0.62221 2.171219,-1.38272 1.719898,-1.18618 2.423874,-1.40387 4.951882,-1.53125 3.374345,-0.16986 5.299974,0.62901 7.037719,2.92026 l 1.00111,1.31998 1.732944,-1.32284 c 2.958357,-2.25815 4.757068,-2.96218 7.593897,-2.97238 5.046051,-0.0202 7.648977,2.70871 8.203388,8.59394 l 0.251387,2.668 0.567638,-1.91277 c 1.273834,-4.29221 4.308918,-7.44635 8.45079,-8.78218 1.490614,-0.48092 3.205258,-0.62137 6.143503,-0.50368 3.638783,0.14571 4.301943,0.29901 6.185043,1.42807 1.3983,0.83853 2.50182,1.91654 3.27397,3.19839 l 1.16481,1.93356 0.5858,-1.29536 c 0.76399,-1.68923 3.72819,-3.89162 6.39584,-4.75197 2.69071,-0.86786 10.39834,-0.61293 13.41106,0.44371 l 2.01335,0.70601 v 3.60006 c 0,3.47287 -0.0317,3.59998 -0.88203,3.59998 -0.48511,0 -1.05071,-0.18695 -1.25679,-0.41559 -0.85767,-0.95155 -4.98119,-2.13685 -7.41277,-2.13082 -2.90762,0.006 -4.39303,0.66845 -4.56968,2.03424 -0.15808,1.22138 1.1861,1.87306 5.85619,2.8395 3.92378,0.81204 5.75959,1.56855 7.04996,2.90516 2.65044,2.7456 2.94471,7.79291 0.65066,11.15924 -0.48248,0.708 -1.75926,1.81989 -2.83729,2.47081 l -1.95996,1.1835 -7.96119,-0.22815 c -4.37867,-0.12557 -8.65154,-0.20503 -9.4952,-0.17738 -0.84371,0.0301 -5.24857,0.0715 -9.78854,0.0974 l -8.254521,0.0451 -2.02555,-1.44238 c -2.447519,-1.74297 -3.811353,-3.63975 -4.724138,-6.57027 l -0.684862,-2.19865 -0.01358,5.21204 -0.01358,5.21204 h -4.218467 -4.218509 l -0.0023,-8.61578 c -0.0023,-9.00558 -0.314348,-11.50936 -1.523453,-12.22731 -1.047584,-0.62203 -3.656216,-0.52872 -5.19797,0.18593 l -1.329773,0.61649 V 290.40168 300.422 H 63.82536 59.606894 v -7.17066 c 0,-12.81876 -0.352395,-14.10297 -3.868966,-14.10297 -1.056871,0 -2.43076,0.29198 -3.05307,0.64915 l -1.131423,0.64912 v 9.98766 9.9877 H 47.143217 42.73297 Z m 81.599768,7.84707 c 1.02965,-0.80011 1.1086,-2.13386 0.15944,-2.6973 -0.38093,-0.22611 -2.20985,-0.72665 -4.06419,-1.11217 -4.20062,-0.87325 -6.14708,-1.62517 -7.77639,-3.00394 -1.22337,-1.03522 -1.27275,-1.04316 -1.27275,-0.20455 0,0.85561 -0.17936,0.87259 -9.20395,0.87259 -5.453027,0 -9.203956,0.16231 -9.203956,0.39801 0,0.9288 0.885066,2.87379 1.782949,3.91818 1.320623,1.53608 3.713289,2.19071 7.296767,1.99629 2.41762,-0.13113 3.54954,-0.44624 5.8268,-1.6221 l 2.82632,-1.45933 1.56472,0.99906 c 2.78419,1.77772 5.28059,2.54609 8.32486,2.56234 2.0106,0.01 3.14547,-0.18593 3.73911,-0.64701 z m -21.39059,-12.1229 c 0,-1.23014 -1.02244,-3.27671 -1.89623,-3.79554 -1.110725,-0.65951 -4.507628,-0.52624 -5.822996,0.22865 -1.028471,0.59007 -2.251709,2.76309 -2.251709,4.00006 0,0.27941 1.814067,0.4392 4.985492,0.4392 4.770063,0 4.985443,-0.0402 4.985443,-0.87203 z m 58.09997,17.17305 c -4.06613,-2.34052 -6.62186,-5.7196 -7.92446,-10.47751 -0.66706,-2.43659 -0.7707,-3.71919 -0.63685,-7.88371 0.14403,-4.48408 0.27811,-5.25462 1.36352,-7.82746 0.66203,-1.56957 1.98736,-3.78325 2.94517,-4.91932 3.41859,-4.05477 7.43487,-5.61924 14.40001,-5.60939 4.61951,0.006 7.76435,0.60845 10.85248,2.07708 l 1.81828,0.86471 v 4.48259 c 0,5.26689 -0.0906,5.34571 -3.37352,2.92825 -3.13511,-2.30869 -5.39804,-3.12736 -8.6149,-3.11651 -2.98056,0.01 -5.44316,0.93454 -7.12859,2.67625 -2.65121,2.73972 -3.83132,8.87049 -2.60691,13.54322 1.38971,5.3037 4.31246,7.69122 9.73958,7.95603 l 3.16385,0.15426 v -3.66016 -3.66018 h -3.2597 -3.25975 v -3.40374 -3.40378 h 7.86173 7.86167 v 4.04198 4.04196 l 1.48999,-1.65302 c 2.06976,-2.29627 5.02793,-3.42426 10.51172,-4.00818 4.50056,-0.47943 4.52294,-0.48695 4.41025,-1.54481 -0.0693,-0.64916 -0.62068,-1.44135 -1.41635,-2.03422 -1.75317,-1.30648 -6.33646,-1.36428 -9.52703,-0.12016 -1.20024,0.46785 -2.58351,0.85092 -3.07392,0.85092 -0.86993,0 -0.88896,-0.0854 -0.7803,-3.49823 l 0.11148,-3.49823 2.87624,-0.56111 c 1.78127,-0.34725 4.92023,-0.50656 8.24524,-0.41761 4.56378,0.12162 5.65441,0.28643 7.27244,1.09731 2.43085,1.21824 3.21531,2.00764 4.08648,4.11248 0.62479,1.50953 0.70537,2.94013 0.71284,12.65776 l 0.009,10.95592 h -4.21851 -4.21846 v -1.08164 -1.08159 l -1.66355,1.08159 c -1.54724,1.00594 -2.00671,1.08164 -6.56991,1.08164 h -4.90659 l -1.67528,-1.85865 c -1.48441,-1.64693 -1.67529,-1.7509 -1.67529,-0.91295 0,0.80626 -0.40992,1.08053 -2.78034,1.86001 -2.46139,0.80936 -3.68235,0.91184 -10.64207,0.89309 -7.69551,-0.0202 -7.90226,-0.0451 -9.7792,-1.12486 z m 38.44567,-5.2341 c 1.20512,-0.81513 1.24639,-0.93677 1.24639,-3.67367 v -2.83058 l -2.54292,0.28896 c -4.28255,0.48695 -5.89406,1.65372 -5.89406,4.26794 0,0.60043 0.34514,1.47455 0.76702,1.94262 1.06598,1.18265 4.67827,1.18525 6.42357,0.006 z m 11.21732,-7.66312 v -14.04056 h 4.41025 4.41024 v 1.06365 c 0,0.58503 0.0748,1.06367 0.16624,1.06367 0.0915,0 1.06845,-0.62221 2.17121,-1.38272 1.7199,-1.18618 2.42388,-1.40387 4.95188,-1.53125 3.37435,-0.16986 5.29994,0.62901 7.03772,2.92026 l 1.00112,1.31998 1.73294,-1.32284 c 2.95834,-2.25815 4.75707,-2.96218 7.59389,-2.97238 5.04607,-0.0202 7.64899,2.70871 8.2034,8.59394 l 0.25138,2.668 0.56765,-1.91277 c 1.27377,-4.29221 4.30887,-7.44635 8.45082,-8.78218 1.49058,-0.48092 3.20522,-0.62137 6.14347,-0.50368 3.63879,0.14571 4.30194,0.29901 6.18503,1.42807 1.39835,0.83853 2.50183,1.91654 3.27402,3.19839 l 1.16477,1.93356 0.58584,-1.29536 c 0.74226,-1.64125 3.67783,-3.86271 6.20443,-4.69515 2.64238,-0.87057 9.30003,-0.80081 12.54782,0.1316 l 2.49276,0.71555 0.11105,3.72286 c 0.1006,3.37512 0.0453,3.72286 -0.59441,3.72286 -0.38773,0 -0.87389,-0.18694 -1.08002,-0.41559 -0.85761,-0.95154 -4.98119,-2.13683 -7.41275,-2.1308 -2.90758,0.006 -4.39298,0.66844 -4.56964,2.03422 -0.15807,1.22139 1.1861,1.87306 5.85615,2.83951 3.90145,0.80742 5.76357,1.57017 7.01354,2.87295 0.81032,0.84464 0.86807,1.25219 0.86807,6.12738 v 5.22262 l -1.24637,1.0351 c -2.94409,2.44502 -3.12325,2.47915 -11.71965,2.23242 -4.36405,-0.12511 -8.62491,-0.20505 -9.46863,-0.17739 -0.8437,0.0301 -5.24851,0.0715 -9.78848,0.0974 l -8.25452,0.0451 -2.02559,-1.44241 c -2.44752,-1.74295 -3.81136,-3.63972 -4.72416,-6.57026 l -0.68484,-2.19866 -0.0143,5.21206 -0.0143,5.21206 h -4.21847 -4.21851 l -0.004,-8.61582 c -0.004,-9.00555 -0.31434,-11.50934 -1.52344,-12.2273 -1.04759,-0.62202 -3.65622,-0.5287 -5.19797,0.18594 l -1.32978,0.6165 v 10.02029 10.02031 h -4.21846 -4.21846 v -7.17064 c 0,-12.81876 -0.3524,-14.10296 -3.86898,-14.10296 -1.05685,0 -2.43075,0.29196 -3.05305,0.64915 l -1.13143,0.64913 v 9.98764 9.98768 h -4.41025 -4.41024 z m 81.59983,7.84707 c 1.02964,-0.80011 1.1086,-2.13386 0.15988,-2.6973 -0.38093,-0.22611 -2.20986,-0.72665 -4.06418,-1.11217 -4.20063,-0.87325 -6.14709,-1.62517 -7.77639,-3.00394 -1.22339,-1.03522 -1.27275,-1.04316 -1.27275,-0.20455 0,0.85561 -0.17937,0.87259 -9.20396,0.87259 -5.45302,0 -9.20395,0.16231 -9.20395,0.39801 0,0.9288 0.88505,2.87379 1.78295,3.91818 1.32061,1.53608 3.71329,2.19071 7.29676,1.99629 2.41762,-0.13113 3.54955,-0.44624 5.8268,-1.6221 l 2.82633,-1.45933 1.5647,0.99906 c 2.7842,1.77772 5.28059,2.54609 8.32488,2.56234 2.0106,0.01 3.14547,-0.18593 3.73911,-0.64701 z m -21.39054,-12.1229 c 0,-1.23014 -1.0225,-3.27671 -1.89629,-3.79554 -1.11069,-0.65951 -4.50759,-0.52624 -5.82295,0.22865 -1.02847,0.59007 -2.25175,2.76309 -2.25175,4.00006 0,0.27941 1.81407,0.4392 4.98548,0.4392 4.77008,0 4.98551,-0.0402 4.98551,-0.87203 z m -136.28229,-7.10556 c -0.11096,-0.64349 -0.3909,-3.56332 -0.62285,-6.48842 -0.23191,-2.92515 -0.50341,-5.74918 -0.60346,-6.27573 -0.17983,-0.94621 -0.13363,-0.95732 3.9658,-0.95732 h 4.14776 l -0.66593,7.12666 c -0.36643,3.91967 -0.6763,7.27026 -0.68893,7.44578 -0.0136,0.17538 -1.2173,0.31909 -2.67703,0.31909 -2.59084,0 -2.65882,-0.0301 -2.85536,-1.17006 z m 60.54132,-10.57721 c -0.84366,-0.0884 -3.51855,-0.36988 -5.9442,-0.62576 -25.4926,-2.68855 -47.88887,-11.98647 -65.57817,-27.22518 -4.2186,-3.63415 -12.2217,-12.1468 -15.02977,-15.98658 l -1.93419,-2.64485 -1.34349,2.84194 c -6.039421,12.77525 -15.770655,23.07045 -28.758016,30.42456 -9.776803,5.53617 -19.398786,8.73474 -32.318659,10.74358 -5.171607,0.80411 -28.765486,1.31229 -38.1855436,0.82255 l -5.91671185,-0.30755 v -24.67874 -24.67867 l 0.96125095,0.26785 c 1.5842851,0.4412 16.6250525,0.29598 20.1138595,-0.19398 6.592832,-0.92605 10.415508,-2.09362 14.761929,-4.50871 8.430499,-4.68449 13.078587,-11.9397 15.359285,-23.97429 1.12685,-5.94631 1.328232,-17.575 1.33557,-77.12193 l 0.009,-59.459662 H 26.438208 0.16857038 V 24.292176 0.46576499 H 56.734532 113.30054 V 17.745724 35.025678 l 3.4961,-3.691161 C 129.85823,17.544272 145.07651,8.0101508 163.69667,1.9520194 l 4.56815,-1.48625441 h 44.95757 44.9576 l 4.51564,1.30078261 c 10.52582,3.0320987 22.17334,7.803251 34.20462,14.0111364 l 3.54737,1.830362 v 30.572247 30.572255 h -3.2295 -3.22949 L 286.57606,72.92802 C 265.69328,56.519113 252.44015,49.693343 234.15517,45.929577 c -6.08099,-1.251709 -20.72575,-1.572387 -27.58346,-0.603994 -17.2561,2.436757 -30.86125,9.646274 -41.93357,22.221081 -14.13678,16.055052 -20.8293,39.563166 -19.49301,68.470796 0.75643,16.36337 3.69074,29.63889 9.06078,40.993 10.92888,23.10745 30.30171,36.01025 58.80412,39.16516 4.42959,0.49047 22.11065,0.60448 25.48437,0.16432 l 2.12749,-0.27739 V 190.80559 165.54857 H 217.42032 194.21871 V 141.084 116.61938 h 53.11449 53.11451 v 64.41872 64.41872 l -3.33164,1.33748 c -14.75322,5.92261 -39.93378,12.88124 -56.1106,15.50615 -10.67465,1.73209 -15.15284,2.05934 -29.72114,2.17175 -8.01509,0.0619 -15.26319,0.0402 -16.10691,-0.0502 z"
       id="path21" />
    <path
       style="fill:#000000;fill-opacity:1;stroke-width:2.20971"
       d="m 710.42134,995.47989 c -88.93677,-11.98918 -161.54289,-40.49711 -224.23902,-88.04481 -20.17113,-15.29744 -61.07587,-56.26077 -73.48314,-73.5884 -4.57736,-6.39262 -8.81967,-11.66695 -9.42734,-11.72072 -0.60767,-0.0537 -2.93887,4.36197 -5.18042,9.81275 -8.03201,19.53123 -33.54807,54.76995 -53.66066,74.10748 -42.68445,41.0396 -94.3173,66.73729 -160.46057,79.86133 -22.83582,4.53105 -31.29072,4.94358 -103.315823,5.04087 l -78.4446583,0.10596 -0.57042,-91.70291 -0.5704197,-91.70291 40.345175,-0.0769 c 46.059685,-0.0877 64.267596,-3.17497 89.183486,-15.12143 30.35151,-14.55268 50.0049,-39.41946 60.49374,-76.54069 7.6114,-26.93763 8.76344,-67.09128 8.8272,-307.66585 l 0.0602,-227.04757 H 100.54175 1.1048543 V 91.702911 2.2097087 H 214.34174 427.57863 V 67.396115 c 0,35.852525 0.28068,65.186405 0.62371,65.186405 0.34306,0 11.11541,-10.22809 23.93855,-22.7291 48.41056,-47.194348 96.42698,-76.758494 160.74648,-98.973044 L 637.9922,2.2097087 h 168.0856 168.08558 l 25.57073,7.9772553 c 34.12119,10.644744 63.04509,22.274969 102.35809,41.158024 l 32.5932,15.655346 V 181.55065 296.10096 l -11.601,-0.0548 c -11.3074,-0.0535 -12.3279,-0.62028 -40.3271,-22.40085 C 987.80387,199.7813 924.22111,172.22169 840.68553,168.72052 784.55327,166.3679 742.58818,173.99789 700.47766,194.2128 590.08814,247.2046 534.91879,372.14455 549.13217,536.95921 c 14.4322,167.35222 98.97362,261.52411 251.82927,280.51622 20.32245,2.52504 92.45012,3.18302 103.63806,0.94543 l 6.90534,-1.38107 v -95.84612 -95.84611 h -88.38835 -88.38835 v -91.70291 -91.70291 h 199.97864 199.97862 v 242.66154 242.66155 l -28.1738,10.12069 c -71.6275,25.73031 -140.66302,43.76739 -210.47473,54.99129 -37.06558,5.95919 -150.37648,7.85349 -185.61553,3.10308 z"
       id="path7047"
       transform="scale(0.26458333)" />
    <path
       style="fill:#000000;fill-opacity:1;stroke-width:2.20971"
       d="m 162.41359,1081.6524 v -51.9281 h 15.46796 c 13.99482,0 15.46796,0.4208 15.46796,4.4194 0,5.6209 1.34941,5.4918 12.1534,-1.1625 15.25733,-9.3973 32.44135,-6.828 43.33326,6.4789 3.50223,4.2788 3.72865,4.2348 14.31831,-2.7795 13.02365,-8.6265 18.25551,-10.0882 30.31782,-8.4707 12.84141,1.722 20.36604,10.5907 23.8015,28.0527 l 2.65792,13.51 6.86714,-13.9475 c 9.74374,-19.7899 20.4033,-26.8549 42.17739,-27.9544 21.16393,-1.0688 30.23408,2.1111 40.27075,14.1181 l 8.09299,9.6818 7.35243,-8.5896 c 10.76765,-12.5796 22.71052,-16.435 46.67714,-15.0685 26.52012,1.5121 29.12946,3.1569 29.12946,18.3623 0,6.6416 -0.24859,12.0752 -0.55243,12.0745 -0.30383,-6e-4 -5.78354,-1.9893 -12.17711,-4.4194 -19.35877,-7.3578 -40.30347,-5.1595 -40.30347,4.2302 0,4.3678 5.72184,7.2727 22.09709,11.2185 18.40875,4.4357 26.58754,9.1746 31.09995,18.0196 7.52509,14.7504 3.91288,30.0139 -9.52942,40.2668 l -7.62458,5.8156 H 416.2044 348.89976 l -9.02676,-6.6384 c -4.96471,-3.6511 -10.46151,-9.8659 -12.2151,-13.8107 -1.75359,-3.9448 -4.28355,-9.6582 -5.62212,-12.6966 -2.01751,-4.5794 -2.45935,-2.2173 -2.58332,13.8107 l -0.14955,19.335 h -15.46796 -15.46797 l -0.0326,-33.6981 c -0.0376,-38.9197 -1.59207,-44.3614 -12.98567,-45.4586 -4.06626,-0.3916 -10.25839,0.4749 -13.76029,1.9254 l -6.3671,2.6373 v 37.297 37.297 h -14.3631 -14.36311 l -0.0527,-29.2787 c -0.0556,-30.8645 -2.13407,-45.285 -6.96903,-48.3506 -4.18079,-2.6507 -13.93708,-2.3441 -20.49563,0.6441 l -5.62825,2.5644 v 37.2104 37.2104 h -15.46796 -15.46796 z m 307.29477,31.963 c 5.81118,-3.11 5.41525,-10.583 -0.69769,-13.1681 -2.73451,-1.1563 -11.39624,-3.7025 -19.24831,-5.658 -7.85204,-1.9556 -17.085,-5.5555 -20.51767,-7.9997 -4.33041,-3.0836 -7.06307,-3.7681 -8.9255,-2.236 -1.47633,1.2146 -17.26989,2.5502 -35.09676,2.9681 -17.8269,0.4179 -33.16924,1.5181 -34.0941,2.4449 -3.05249,3.0587 5.44118,16.8296 12.69336,20.5799 9.60693,4.9679 32.71807,3.3442 45.53202,-3.1989 8.85494,-4.5216 9.71564,-4.5889 14.93559,-1.1687 13.36943,8.76 36.01735,12.4682 45.41906,7.4365 z m -79.69478,-47.5407 c 0,-1.8834 -1.51709,-6.358 -3.3713,-9.9437 -2.95701,-5.7182 -4.56407,-6.5194 -13.07753,-6.5194 -12.82575,0 -16.22852,1.5237 -20.09309,8.9969 -5.36507,10.3749 -4.57658,10.8905 16.65455,10.8905 16.48778,0 19.88737,-0.5854 19.88737,-3.4243 z"
       id="path7086"
       transform="scale(0.26458333)" />
    <path
       style="fill:#000000;fill-opacity:1;stroke-width:2.20971"
       d="m 68.785324,1126.8864 c -9.319883,-11.0761 -10.385384,-29.9824 -2.337266,-41.4727 5.321412,-7.5974 19.056379,-13.4995 37.916852,-16.2935 19.30663,-2.86 21.49787,-3.9931 19.55581,-10.112 -2.96589,-9.3446 -23.76703,-12.2481 -43.92687,-6.1313 l -10.604206,3.2175 0.660517,-12.6197 c 0.629946,-12.0355 0.967342,-12.6848 7.289643,-14.0285 3.64602,-0.7748 16.075631,-1.5046 27.621356,-1.6217 22.75986,-0.2308 34.55698,3.2907 43.08932,12.8626 4.05039,4.5438 4.4763,8.6292 5.10064,48.9256 l 0.68123,43.9679 h -14.49191 c -11.40855,0 -14.4919,-0.7053 -14.4919,-3.3146 0,-4.1827 -2.39858,-4.2042 -7.86406,-0.07 -2.98435,2.2573 -10.11205,3.2657 -23.427858,3.3146 -18.630394,0.068 -19.288073,-0.1075 -24.771298,-6.6239 z m 52.747446,-15.4019 c 2.19833,-1.8245 3.31577,-6.7707 3.31577,-14.6768 0,-11.1902 -0.30634,-11.8632 -4.97184,-10.9235 -2.73452,0.5507 -8.38689,1.5758 -12.56083,2.278 -4.17394,0.7022 -9.394382,2.9105 -11.600975,4.9075 -5.242191,4.7441 -5.331264,17.3826 -0.145001,20.5731 4.789616,2.9465 21.484146,1.5587 25.962866,-2.1583 z"
       id="path7125"
       transform="scale(0.26458333)" />
    <path
       style="fill:#000000;fill-opacity:1;stroke-width:2.20971"
       d="m 1.1048543,1122.532 v -11.0485 h 7.391503 c 4.7032707,0 8.9224537,-1.6895 11.6009697,-4.6454 3.758977,-4.1482 4.283213,-8.996 4.898549,-45.299 l 0.68908,-40.6537 H 13.394905 1.1048543 V 1008.732 996.57862 H 29.596951 58.089045 l -1.037301,55.79518 c -0.571811,30.7569 -2.076362,58.5266 -3.35274,61.882 -1.273493,3.3478 -5.707799,9.0654 -9.854015,12.7058 -7.024039,6.1672 -8.739893,6.619 -25.139355,6.619 H 1.1048543 Z"
       id="path7164"
       transform="scale(0.26458333)" />
    <path
       style="fill:#000000;fill-opacity:1;stroke-width:2.20971"
       d="m 510.53542,1040.2204 c -0.48039,-1.5192 -1.89342,-13.1736 -3.14008,-25.8987 -2.61498,-26.69214 -2.72429,-26.49781 14.93302,-26.54808 l 11.88564,-0.0338 -1.3195,10.49612 c -0.72573,5.77286 -1.98536,18.20246 -2.79918,27.62136 l -1.47967,17.1252 h -8.60339 c -4.94375,0 -8.97494,-1.1749 -9.47684,-2.7621 z"
       id="path7203"
       transform="scale(0.26458333)" />
    <path
       style="fill:#000000;fill-opacity:1;stroke-width:2.20971"
       d="m 608.77474,1129.7371 c -10.80327,-7.0631 -18.16759,-15.0884 -23.84709,-25.9876 -4.89229,-9.3885 -5.89322,-14.5924 -6.66179,-34.6353 -0.83883,-21.8754 -0.47762,-24.5209 4.97816,-36.4602 6.86059,-15.0136 16.44297,-25.7413 28.84529,-32.2931 13.67097,-7.22193 50.70743,-8.10278 67.94854,-1.61603 l 12.70582,4.78043 v 16.631 16.6311 l -7.18155,-4.7942 c -15.75417,-10.5169 -25.99476,-13.8464 -39.56714,-12.8647 -8.25244,0.5969 -15.17314,2.5414 -19.01983,5.344 -20.87551,15.2091 -21.90227,64.039 -1.68103,79.945 5.72686,4.5048 8.81262,5.3698 28.22723,7.9125 l 8.2864,1.0853 v -15.329 -15.329 h -12.15339 -12.1534 v -12.1534 -12.1534 h 28.72621 28.72621 v 15.4679 c 0,8.5074 0.80833,15.468 1.7963,15.468 0.98796,0 4.58507,-2.9109 7.99357,-6.4686 8.00256,-8.3529 14.2435,-10.8158 35.6492,-14.0687 15.27,-2.3205 17.62532,-3.2804 18.21579,-7.4234 1.57628,-11.0599 -21.51058,-15.5023 -44.428,-8.5488 l -10.6042,3.2175 0.66052,-12.5802 0.66051,-12.5803 9.94369,-1.8184 c 5.46903,-1.0001 19.40976,-1.4949 30.97941,-1.0996 16.98505,0.5804 22.54993,1.6547 28.89922,5.5787 12.67279,7.8322 13.83294,12.4227 14.79836,58.5539 l 0.86708,41.4321 h -15.67495 c -12.46015,0 -15.67494,-0.6798 -15.67494,-3.3146 0,-4.1241 -2.08385,-4.1049 -7.6039,0.07 -2.99062,2.262 -9.97901,3.2443 -23.08103,3.2443 -17.3855,0 -19.25575,-0.4446 -24.99314,-5.9414 -5.49923,-5.2686 -6.51379,-5.5508 -8.95975,-2.4922 -5.07604,6.3474 -17.36001,8.4351 -48.93949,8.3177 -24.96789,-0.093 -32.2562,-0.8335 -36.68289,-3.7276 z m 145.3491,-17.2741 c 4.05577,-2.8407 4.9111,-5.542 4.9111,-15.51 0,-11.3408 -0.30045,-12.0097 -4.97185,-11.0688 -2.73451,0.5507 -8.38689,1.5758 -12.56083,2.278 -4.17394,0.7022 -9.39438,2.9105 -11.60097,4.9075 -4.93254,4.4639 -5.21734,14.683 -0.53958,19.3608 4.45639,4.4564 18.42,4.4747 24.76213,0.033 z"
       id="path7242"
       transform="scale(0.26458333)" />
    <path
       style="fill:#000000;fill-opacity:1;stroke-width:2.20971"
       d="m 796.59998,1081.6524 v -51.9281 h 15.31906 c 13.38408,0 15.49642,0.5588 16.72329,4.4243 1.37326,4.3268 1.61245,4.3024 10.83917,-1.1048 15.34671,-8.9938 37.01385,-6.2211 43.30936,5.5422 3.14371,5.874 4.30252,5.6551 17.66543,-3.3375 8.75828,-5.8939 13.78091,-7.734 21.11031,-7.734 18.74563,0 25.87772,6.8148 30.84554,29.4733 2.45321,11.1893 3.2679,12.6806 4.57098,8.3676 7.20914,-23.8612 23.2492,-36.2152 48.68848,-37.4998 19.5156,-0.9855 32.1806,4.1176 40.417,16.2852 l 5.3157,7.853 6.2826,-7.6218 c 12.8391,-15.5761 36.4609,-20.7656 65.8412,-14.4646 l 11.1573,2.3928 v 13.3115 c 0,11.8292 -0.4306,13.129 -3.867,11.6719 -20.2293,-8.5778 -39.5405,-10.3526 -45.6936,-4.1996 -1.9098,1.9098 -3.4724,4.3728 -3.4724,5.4734 0,3.677 9.7902,8.1747 26.4124,12.134 23.7837,5.6652 26.6206,9.1689 26.6206,32.878 v 18.8033 l -8.2469,5.6039 -8.2469,5.604 h -67.9817 -67.98165 l -9.10308,-8.2241 c -5.00669,-4.5233 -11.39148,-13.224 -14.18842,-19.335 l -5.08535,-11.1108 -0.18105,19.3349 -0.18105,19.335 h -15.32245 -15.32246 l -0.69793,-37.6497 c -0.75536,-40.7475 -1.08765,-41.7966 -13.25991,-41.866 -3.26307,-0.019 -8.4835,0.9359 -11.60097,2.1212 l -5.66812,2.155 v 37.6197 37.6198 h -15.27784 -15.27784 l -0.74255,-36.126 c -0.54422,-26.4771 -1.55255,-37.1005 -3.77525,-39.7748 -3.53403,-4.2519 -15.23653,-4.7947 -23.37983,-1.0844 l -5.62825,2.5644 v 37.2104 37.2104 h -15.46796 -15.46796 z m 307.29482,31.963 c 2.3698,-1.2683 4.2741,-4.608 4.2741,-7.4959 0,-4.642 -1.7425,-5.6232 -16.0204,-9.0212 -8.8112,-2.097 -20.4197,-6.2084 -25.7968,-9.1366 -5.377,-2.9281 -10.3488,-4.3985 -11.0485,-3.2676 -0.6997,1.131 -16.3551,2.4008 -34.7898,2.8218 -18.4348,0.4211 -34.16543,1.415 -34.95709,2.2088 -0.79167,0.7937 0.58293,5.4072 3.05467,10.2522 7.62123,14.9389 30.77432,18.486 53.03232,8.1247 11.4195,-5.3158 12.1585,-5.3915 17.6314,-1.8055 12.6488,8.2878 35.7346,12.0747 44.6201,7.3193 z m -79.6948,-49.149 c 0,-9.8349 -5.8861,-14.8548 -17.4178,-14.8548 -11.2754,0 -18.07912,4.7989 -21.14706,14.9156 -1.48634,4.9013 -1.22342,4.9718 18.52856,4.9718 19.3769,0 20.0363,-0.1656 20.0363,-5.0326 z"
       id="path7281"
       transform="scale(0.26458333)" />
  </g>
</svg>
